<?xml version="1.0" encoding="UTF-8" standalone="no"?>
<!DOCTYPE svg PUBLIC "-//W3C//DTD SVG 1.1//EN" "http://www.w3.org/Graphics/SVG/1.1/DTD/svg11.dtd">
<svg width="100%" height="100%" viewBox="0 0 70867 70867" version="1.1" xmlns="http://www.w3.org/2000/svg" xmlns:xlink="http://www.w3.org/1999/xlink" xml:space="preserve" xmlns:serif="http://www.serif.com/" style="fill-rule:evenodd;clip-rule:evenodd;stroke-linecap:round;stroke-linejoin:round;stroke-miterlimit:1.5;">
    <g id="mozoushi">
        <g id="eyes">
            <g id="eye2">
                <path id="tentacle" d="M23405.4,20195.5C23687.1,18286.8 24116.9,16279.4 24250.5,14469.5C24376.4,12762.9 24421.7,10787.4 24206.9,9336.06C24022.2,8087.88 23546.9,6776.5 22961.7,5761.42C22398,4783.68 21592.7,3930.7 20695.9,3245.62C19628.4,2430.23 18152,2280.72 17080,2062.45" style="fill:none;stroke:black;stroke-width:833.33px;"/>
                <path id="eyeball" d="M12795.3,4127.31C12649.8,3874.65 13099.9,3183.25 13387.1,2898.6C13674.2,2613.95 14211.6,2499.27 14518.2,2419.41C14746.7,2359.88 15096.1,2240.77 15226.5,2419.41C15356.9,2598.05 15456.7,3168.95 15300.6,3491.25C15139.5,3823.77 14677.5,4308.52 14259.9,4414.53C13842.4,4520.54 12940.8,4379.96 12795.3,4127.31Z" style="stroke:black;stroke-width:833.33px;"/>
            </g>
            <path id="eye1" d="M35138.7,18231.2C35675,16193.5 36148.8,14205.2 36533.7,12233.8C36692.6,11420 36905.9,10202.3 37038.6,9310.65C37213.1,8138.24 37200,7203.48 37153,6411.76C37095.6,5444.78 36914.8,4440.55 36111.4,3899.46C35126.8,3236.4 32427.5,2344.44 31540.5,2424.43C30906.1,2481.63 30806.1,3771.3 30928.9,4234.72C31051.8,4698.13 31857.1,5067.88 32277.8,5204.91C32653.2,5327.19 33217.6,5373.86 33453,5056.89C33716.2,4702.51 33722.3,3738.06 33856.9,3078.64" style="fill:none;stroke:black;stroke-width:833.33px;"/>
        </g>
        <g id="bodies">
            <g id="legs">
                <path id="leg2" d="M37183.5,68077.9C38676.5,68114.2 40564.8,68418.1 41662.5,68186.7C42505.6,68009 43110.9,67244.8 43769.7,66689.4C44449.6,66116.2 45071.2,65073 45742.1,64747.4C46357.7,64448.6 47135.2,64554.4 47795,64735.9C48464,64920 49144,65526.2 49756.2,65851.8C50317.3,66150.1 50847.1,66558.1 51468.8,66689.4C52129.7,66829 53085,66594.7 53721.3,66689.4C54270.3,66771.2 54772.2,67257.9 55286.4,67257.9C55800.7,67257.9 56273.8,66781.8 56806.9,66689.4C57353.8,66594.7 58059.8,66771.7 58567.5,66689.4C59020.6,66616 59418.1,66342.6 59853.1,66196C60304.9,66043.6 60872,65901.6 61278.4,65775.4C61618.3,65669.8 61953.9,65550.7 62291.6,65438.3" style="fill:none;stroke:black;stroke-width:833.33px;"/>
                <path id="leg1" d="M4325.2,50208.9C3935.53,50770.1 3463.52,51282.4 3156.18,51892.6C2794.66,52610.3 2297.23,53590.5 2156.09,54515.4C1989.41,55607.8 1949.22,57557.9 2156.09,58447C2297.6,59055.2 2950.78,59534.3 3397.3,59850.2C3810.87,60142.9 4330.04,60304.2 4835.21,60342.8C5614.55,60402.3 7177.61,60324.6 8073.36,60207.3C8804,60111.7 9480.88,59747.7 10209.7,59639.1C10992,59522.5 12029,59475.6 12767,59507.9C13399.4,59535.6 14202.4,59543.1 14637.9,59833C15073.4,60122.9 15131.9,60776.2 15380.2,61247.1C15668,61792.7 16081.2,62614 16364.5,63106.7C16582.1,63485.2 16772.2,63894.2 17080,64203.7C17409.2,64534.5 17833,65005 18339.2,65091.9C19309.3,65258.4 21541,65218.1 22900.6,65202.8C24101.2,65189.3 25387.6,65046.5 26496.8,64999.9C27515.8,64957.1 28824.5,64833.8 29555.6,64923.5C30039.6,64982.9 30486.8,65310.1 30883.3,65538.2C31257,65753.2 31579.2,66100.2 31934.4,66292.1C32272,66474.4 32654.6,66557 33014.7,66689.4" style="fill:none;stroke:black;stroke-width:833.33px;"/>
            </g>
            <g id="patterns">
                <path id="pattern3" d="M6101.91,39034.8C7393.79,39022.3 9055.82,38947.1 9977.56,38997.3C10539.8,39027.9 11075.4,39253.7 11632.3,39336.1C12235.9,39425.3 12974.2,39411.3 13598.9,39532.9C14207.2,39651.3 14852.5,39787.9 15380.2,40065.4C15907.9,40342.9 16444,40695.3 16765,41197.9C17108.3,41735.2 17324.9,42566 17439.7,43289.6C17556,44021.7 17411.1,44825.4 17462.5,45590.8C17525.6,46530.3 17741.9,47962.2 17818.2,48926.4C17882.7,49741 17917.3,50558.6 17920.5,51375.8C17923.8,52207.2 17851.5,53186.5 17837.8,53915.2C17826.3,54526.1 17922.5,55177.2 17838.3,55748.1C17757,56299.3 17501.2,56810.1 17332.7,57341.1" style="fill:none;stroke:black;stroke-width:833.33px;"/>
                <path id="pattern2" d="M41662.5,54503.7C42327.5,54004.2 42929.7,53407.8 43657.4,53005.2C44535.2,52519.6 45756.7,51782.2 46929.3,51589.8C48533.7,51326.6 51637.6,51351.9 53283.9,51425.9C54474.4,51479.4 55760.4,51859.3 56806.9,52034C57724.6,52187.2 58758,52392.8 59563.1,52474C60251.2,52543.4 61047.9,52609.1 61637.5,52738.6C62169.7,52855.6 62599.4,53036.5 63100.3,53251.1C63610,53469.6 64156.6,53659.5 64695.7,53831.8C65354.8,54042.5 66268.6,54287.6 67055.1,54515.4" style="fill:none;stroke:black;stroke-width:833.33px;"/>
                <path id="pattern1" d="M40751.5,30191.3C40230.3,31788.3 39454.4,33323.7 39187.9,34982.3C39042.7,35885.7 38813.6,37090.9 38787.7,38214.4C38761.1,39372.3 38855.7,40873.5 38897.6,41625.3C38948.7,42544.9 39231,43154 39682.3,43870.7C40133.7,44587.4 40923.2,45106.3 41690.7,45498C42543.3,45933 43722.2,46329.6 44797.9,46480.9C46233,46682.7 48930.3,46812.3 50301.4,46708.6C51249.5,46637 52212.9,46144.3 53024.6,45859.2C53752,45603.8 54540.8,45359 55171.2,44998.5C55776.2,44652.6 56261.7,44130.6 56806.9,43696.6" style="fill:none;stroke:black;stroke-width:833.33px;"/>
            </g>
            <path id="mouth" d="M25254.3,24476.2C25313.2,25035.2 25236.6,25714.2 25431.1,26153.2C25616.9,26572.8 25997.9,26932.2 26420.9,27110.3C26950.1,27333 27979,27433 28606.7,27489.9C29131.4,27537.4 29667.4,27539.5 30186.9,27451.5C30724.2,27360.4 31310.1,27152.1 31830.2,26943.4C32341.9,26738 32969.8,26393.8 33307.6,26199.1C33507.9,26083.6 33673.8,25916.6 33856.9,25775.3" style="fill:none;stroke:black;stroke-width:833.33px;"/>
            <path id="body" d="M6212.05,36145.1C5058.1,36152.5 15315.8,21924.1 23607.7,20149.8C25988.3,19640.4 30564.9,18280.8 34136.1,20601.4C41787.5,25573.5 46625.9,31245.2 48768.9,33663C51203.1,36409.4 52066.1,39522.7 54585.3,40323.8C56164,40825.9 58355.9,42564.7 59699.8,43457C60058.1,43694.9 61307.2,43908.8 61307.2,43908.8C62006.4,44131.2 63772.8,51872.9 63778.3,53175.6C63783,54287.1 64747.9,56642.6 64807.3,58808.9C64851.2,60409.1 66006.8,62430.8 65363,62452.4C64121.8,62494.1 61009.5,62648.2 58597.7,62685C55610.4,62730.7 52220.6,63533.3 51364.3,62797.7C50510.1,62063.9 48832.5,60170.8 46054.3,59469.5C44675.2,59121.4 43153.9,58872.6 41666,58694.9C40553.1,58561.9 39783.9,58198.5 39004.2,58181.8C37053.5,58140 35842.8,58133.8 34171.5,58264.2C31955.8,58437.1 30342.6,62115.2 28715,62563.7C27503.6,62897.4 25356.9,62372.6 24224,62353C23537.7,62341.2 12409.3,53377.5 11356.5,52879C8136.65,51354.7 4292.89,50944.3 3322.68,49275.8C1821.69,46694.6 1988.17,42873.5 2606.32,38188.7C3040.17,34900.6 5208.23,31517.3 8349.67,28080.6" style="fill:none;stroke:black;stroke-width:833.33px;"/>
        </g>
    </g>
</svg>
